<svg xmlns="http://www.w3.org/2000/svg" viewBox="0 0 660.2 152.95"><defs><style>.cls-1{fill:#c5e3ec;}.cls-2{fill:#fff;}.cls-3{fill:#50aac5;}</style></defs><g id="Layer_2" data-name="Layer 2"><g id="Layer_1-2" data-name="Layer 1"><path class="cls-1" d="M5.9,144.17V125.76l15.4,18.41h6.09V116.66h-6V135L6.09,116.66H0v27.51Z"/><path class="cls-1" d="M37.66,144.17V133.39H53.21v-5.95H37.66v-4.82H57v-6H31.68v27.51Z"/><path class="cls-1" d="M74.74,144.17V122.62H85.47v-6H58.08v6H68.81v21.55Z"/><path class="cls-1" d="M106.39,144.17V125.76L115.86,137l9.43-11.3v18.45h5.94V116.66H125.1l-9.24,11.12-9.28-11.12h-6.09v27.51Z"/><path class="cls-1" d="M157.59,144.17V127.55a5.38,5.38,0,0,0-1.62-3.9,5.3,5.3,0,0,0-3.9-1.64H135.22v5.85h16.55v2.29H135.22v8.48a5.34,5.34,0,0,0,1.62,3.89,5.24,5.24,0,0,0,3.9,1.65ZM141,138.32v-3h10.73v3H141Z"/><path class="cls-1" d="M166.37,144.17V127.86h11.91V122H166.11a5.6,5.6,0,0,0-5.56,5.54v16.62Z"/><path class="cls-1" d="M186.42,144.17V136h3l7.5,8.14h5.86v-2l-8.22-9.09,8.22-9.09v-2h-5.86l-7.5,8.14h-3v-15.4H180.6v29.42Z"/><path class="cls-1" d="M227.38,144.17v-5.85H210.84V136h16.54v-8.48a5.41,5.41,0,0,0-1.61-3.9,5.3,5.3,0,0,0-3.9-1.64H210.53a5.58,5.58,0,0,0-5.51,5.54v11.08a5.6,5.6,0,0,0,5.51,5.54Zm-16.54-15v-1.26h10.72v3H210.84Z"/><path class="cls-1" d="M245.37,144.17v-5.85H237.2V127.86h8.17V122H237.2v-6.57h-5.82v23.19a5.6,5.6,0,0,0,5.55,5.54Z"/><path class="cls-1" d="M254.35,153v-8.78h11a5.27,5.27,0,0,0,3.9-1.65,5.34,5.34,0,0,0,1.62-3.89V127.55a5.38,5.38,0,0,0-1.62-3.9,5.3,5.3,0,0,0-3.9-1.64H248.53V153Zm0-14.63V127.86h10.73v10.46H254.35Z"/><path class="cls-1" d="M284,144.17v-5.85h-4.45v-23.6h-5.86v23.91a5.62,5.62,0,0,0,5.52,5.54Z"/><path class="cls-1" d="M309.24,144.17V127.55a5.38,5.38,0,0,0-1.62-3.9,5.3,5.3,0,0,0-3.9-1.64H286.87v5.85h16.55v2.29H286.87v8.48a5.34,5.34,0,0,0,1.62,3.89,5.27,5.27,0,0,0,3.9,1.65Zm-16.55-5.85v-3h10.73v3H292.69Z"/><path class="cls-1" d="M334.23,144.17v-5.85H317.68V127.86h16.51V122H317.38a5.3,5.3,0,0,0-3.88,1.64,5.36,5.36,0,0,0-1.64,3.9v11.08a5.62,5.62,0,0,0,5.52,5.54Z"/><path class="cls-1" d="M359.68,144.17v-5.85H343.13V136h16.55v-8.48a5.38,5.38,0,0,0-1.62-3.9,5.3,5.3,0,0,0-3.9-1.64H342.83a5.6,5.6,0,0,0-5.52,5.54v11.08a5.62,5.62,0,0,0,5.52,5.54Zm-16.55-15v-1.26h10.73v3H343.13Z"/><path class="cls-1" d="M398.17,144.17v-5.85H381.62V127.86h16.51V122H381.32a5.3,5.3,0,0,0-3.88,1.64,5.36,5.36,0,0,0-1.64,3.9v11.08a5.62,5.62,0,0,0,5.52,5.54Z"/><path class="cls-1" d="M418.67,144.17a5.27,5.27,0,0,0,3.9-1.65,5.34,5.34,0,0,0,1.62-3.89V127.55a5.38,5.38,0,0,0-1.62-3.9,5.3,5.3,0,0,0-3.9-1.64H407.34a5.3,5.3,0,0,0-3.88,1.64,5.36,5.36,0,0,0-1.64,3.9v11.08a5.62,5.62,0,0,0,5.52,5.54Zm-11-5.85V127.86h10.73v10.46H407.64Z"/><path class="cls-1" d="M434,144.17V127.86h7.3v16.31h5.86V127.86h7.3v16.31h5.78V127.55a5.41,5.41,0,0,0-1.61-3.9,5.3,5.3,0,0,0-3.9-1.64H428.22v22.16Z"/><path class="cls-1" d="M471.12,144.17V122H465.3v22.16Zm0-23.53v-5.89H465.3v5.89Z"/><path class="cls-1" d="M481.39,144.17V127.86h10.73v16.31h5.82V127.55a5.38,5.38,0,0,0-1.62-3.9,5.28,5.28,0,0,0-3.9-1.64H475.57v22.16Z"/><path class="cls-1" d="M518,152.91a5.53,5.53,0,0,0,5.52-5.53V127.55a5.38,5.38,0,0,0-1.62-3.9A5.3,5.3,0,0,0,518,122H506.69a5.6,5.6,0,0,0-5.56,5.54v11.08a5.62,5.62,0,0,0,5.56,5.54h11V147H504.63v5.88ZM507,138.32V127.86h10.77v10.46H507Z"/><path class="cls-1" d="M556.4,144.17a5.6,5.6,0,0,0,5.55-5.54v-2.94a5.58,5.58,0,0,0-5.55-5.54h-11v-2.29H556.1v.8H562v-1.11A5.58,5.58,0,0,0,556.4,122H545.07a5.3,5.3,0,0,0-3.88,1.64,5.36,5.36,0,0,0-1.64,3.9v2.94a5.36,5.36,0,0,0,1.64,3.9,5.3,5.3,0,0,0,3.88,1.64h11v2.29H545.37v-.8h-5.82v1.11a5.62,5.62,0,0,0,5.52,5.54Z"/><path class="cls-1" d="M581.81,144.17a5.27,5.27,0,0,0,3.9-1.65,5.34,5.34,0,0,0,1.62-3.89V127.55a5.38,5.38,0,0,0-1.62-3.9,5.3,5.3,0,0,0-3.9-1.64H570.47a5.6,5.6,0,0,0-5.51,5.54v11.08a5.62,5.62,0,0,0,5.51,5.54Zm-11-5.85V127.86h10.73v10.46H570.78Z"/><path class="cls-1" d="M607.14,144.17a5.27,5.27,0,0,0,3.9-1.65,5.34,5.34,0,0,0,1.62-3.89V127.55a5.38,5.38,0,0,0-1.62-3.9,5.3,5.3,0,0,0-3.9-1.64H595.81a5.3,5.3,0,0,0-3.88,1.64,5.36,5.36,0,0,0-1.64,3.9v11.08a5.62,5.62,0,0,0,5.52,5.54Zm-11-5.85V127.86h10.73v10.46H596.11Z"/><path class="cls-1" d="M621.41,144.17V127.86h10.72v16.31H638V127.55a5.41,5.41,0,0,0-1.61-3.9,5.3,5.3,0,0,0-3.9-1.64H615.59v22.16Z"/><path class="cls-1" d="M660.2,136.49V116.66h-5.82v19.83Zm0,7.68v-5.85h-5.82v5.85Z"/><path class="cls-2" d="M18.34,83.24V27.52L47,61.62,75.56,27.4V83.24h18V0H75L47,33.64,18.92,0H.49V83.24Z"/><path class="cls-2" d="M172.85,83.24a17.24,17.24,0,0,0,17-17.11v-49A16.4,16.4,0,0,0,184.82,5a16.45,16.45,0,0,0-12-5H124a16.39,16.39,0,0,0-12,5,16.5,16.5,0,0,0-5,12.08v49a17.14,17.14,0,0,0,17,17.11Zm-48-18V18h47V65.21h-47Z"/><path class="cls-2" d="M268.06,83.24a17.23,17.23,0,0,0,17-17.11v-49A16.43,16.43,0,0,0,280,5a16.45,16.45,0,0,0-12-5H219.25a16.39,16.39,0,0,0-12,5,16.53,16.53,0,0,0-5,12.08v49a17.12,17.12,0,0,0,17,17.11Zm-48-18V18h47V65.21h-47Z"/><path class="cls-2" d="M315.5,83.24V27.52l46.62,55.72h18.43V0H362.47V55.5L316.07,0H297.65V83.24Z"/><path class="cls-3" d="M459.87,83.24a15.3,15.3,0,0,0,11.28-4.74,15.47,15.47,0,0,0,4.72-11.33V50.06a15.69,15.69,0,0,0-4.72-11.39,15.27,15.27,0,0,0-11.28-4.79H412.21c-2.15,0-3.36-.12-3.63-.35s-.4-1.43-.4-3.59V19.42c0-2.15.13-3.37.4-3.64s1.48-.4,3.63-.4h44.32c2.15,0,3.36.13,3.63.4s.4,1.49.4,3.64v3h15.31V16.07a15.49,15.49,0,0,0-4.72-11.33A15.34,15.34,0,0,0,459.87,0H409A15.37,15.37,0,0,0,397.7,4.74,15.49,15.49,0,0,0,393,16.07V33.18a15.67,15.67,0,0,0,4.72,11.39A15.28,15.28,0,0,0,409,49.37h47.55c2.15,0,3.36.11,3.63.35s.4,1.42.4,3.58V63.82c0,2.16-.13,3.37-.4,3.64s-1.48.41-3.63.41H412.21c-2.15,0-3.36-.14-3.63-.41s-.4-1.48-.4-3.64v-3H393v6.36a16.15,16.15,0,0,0,16,16.07Z"/><path class="cls-3" d="M564.87,83.24V67.87h-61V49.37h49V33.88h-49V15.38h61V0H488.54V83.24Z"/><path class="cls-3" d="M591.81,83.24v-28H644.2v28h15.31V16.07a15.49,15.49,0,0,0-4.72-11.33A15.51,15.51,0,0,0,643.39,0H592.62a15.34,15.34,0,0,0-11.28,4.74,15.49,15.49,0,0,0-4.72,11.33V83.24Zm0-63.82c0-2.15.14-3.37.41-3.64s1.47-.4,3.62-.4h44.33c2.07,0,3.26.13,3.57.4s.46,1.49.46,3.64V40H591.81Z"/></g></g></svg>