<?xml version="1.0" encoding="utf-8"?>
<!-- Generator: Adobe Illustrator 26.0.2, SVG Export Plug-In . SVG Version: 6.00 Build 0)  -->
<svg version="1.1" id="Laag_1" xmlns="http://www.w3.org/2000/svg" xmlns:xlink="http://www.w3.org/1999/xlink" x="0px" y="0px"
	 viewBox="0 0 24 24" style="enable-background:new 0 0 24 24;" xml:space="preserve">
<style type="text/css">
	.st0{fill:#50AAC5;}
</style>
<path class="st0" d="M12,2.1c-5.5,0-10,4.5-10,10c0,4.9,3.6,9.1,8.3,9.9l0.1,0c0,0,0,0-0.1,0v-7.1H7.8v-2.8h2.5V9.8
	c0-2.5,1.6-3.9,3.9-3.9c0.7,0,1.5,0.1,2.2,0.2v2.6h-1.3c-1.2,0-1.5,0.6-1.5,1.4v1.9h2.7l-0.4,2.8l-2.2,0v7.1c0,0,0,0-0.1,0l0.1,0
	c4.7-0.8,8.3-4.9,8.3-9.9C22,6.6,17.5,2.1,12,2.1z"/>
</svg>
