<?xml version="1.0" encoding="utf-8"?>
<!-- Generator: Adobe Illustrator 26.0.2, SVG Export Plug-In . SVG Version: 6.00 Build 0)  -->
<svg version="1.1" id="Laag_1" xmlns="http://www.w3.org/2000/svg" xmlns:xlink="http://www.w3.org/1999/xlink" x="0px" y="0px"
	 viewBox="0 0 24 24" style="enable-background:new 0 0 24 24;" xml:space="preserve">
<style type="text/css">
	.st0{fill:#50AAC5;}
</style>
<path class="st0" d="M19.5,6.7c-2.5-1.8-4.8-1.8-4.8-1.8l-0.2,0.3c2.9,0.9,4.3,2.1,4.3,2.1c-1.7-1-3.5-1.5-5.1-1.6
	c-1.2-0.1-2.4-0.1-3.4,0c-0.1,0-0.2,0-0.3,0C9.3,5.8,7.9,6,6,6.8C5.4,7.1,5,7.3,5,7.3s1.4-1.4,4.5-2.2L9.3,4.9c0,0-2.3,0-4.8,1.8
	c0,0-2.5,4.4-2.5,9.9c0,0,1.5,2.5,5.2,2.6c0,0,0.6-0.8,1.2-1.4c-2.2-0.6-3-2-3-2s0.2,0.1,0.5,0.3c0,0,0,0,0,0c0,0,0.1,0,0.1,0.1
	c0.4,0.2,0.9,0.4,1.3,0.6c0.7,0.3,1.5,0.5,2.5,0.7c1.3,0.2,2.8,0.3,4.4,0c0.8-0.1,1.6-0.4,2.5-0.7c0.6-0.2,1.3-0.5,2-1
	c0,0-0.9,1.4-3.1,2c0.5,0.6,1.1,1.4,1.1,1.4c3.8-0.1,5.2-2.6,5.3-2.6C22,11.1,19.5,6.7,19.5,6.7z M8.8,15c-1,0-1.7-0.8-1.7-1.9
	c0-1.1,0.8-1.9,1.7-1.9c1,0,1.7,0.8,1.7,1.9C10.5,14.2,9.7,15,8.8,15z M15,15c-1,0-1.7-0.8-1.7-1.9c0-1.1,0.8-1.9,1.7-1.9
	s1.7,0.8,1.7,1.9C16.8,14.2,16,15,15,15z"/>
</svg>
