<?xml version="1.0" encoding="utf-8"?>
<!-- Generator: Adobe Illustrator 26.0.2, SVG Export Plug-In . SVG Version: 6.00 Build 0)  -->
<svg version="1.1" id="Laag_1" xmlns="http://www.w3.org/2000/svg" xmlns:xlink="http://www.w3.org/1999/xlink" x="0px" y="0px"
	 viewBox="0 0 20 20" style="enable-background:new 0 0 20 20;" xml:space="preserve">
<style type="text/css">
	.st0{fill:#090D16;}
	.st1{fill:none;stroke:#090D16;stroke-miterlimit:10;}
</style>
<g>
	<path class="st0" d="M19,3v15c0,0.6-0.4,1-1,1H2c-0.6,0-1-0.4-1-1V3H19 M20,2H0v16c0,1.1,0.9,2,2,2h16c1.1,0,2-0.9,2-2V2L20,2z"/>
</g>
<g>
	<line class="st1" x1="0" y1="6" x2="20" y2="6"/>
</g>
<g>
	<line class="st1" x1="0" y1="10.5" x2="20" y2="10.5"/>
</g>
<g>
	<line class="st1" x1="0" y1="15" x2="20" y2="15"/>
</g>
<line class="st1" x1="4" y1="0" x2="4" y2="4.5"/>
<line class="st1" x1="5" y1="6" x2="5" y2="20"/>
<line class="st1" x1="10" y1="6" x2="10" y2="20"/>
<line class="st1" x1="15" y1="6" x2="15" y2="20"/>
<line class="st1" x1="16" y1="0" x2="16" y2="4.5"/>
</svg>
