<?xml version="1.0" encoding="utf-8"?>
<!-- Generator: Adobe Illustrator 26.0.2, SVG Export Plug-In . SVG Version: 6.00 Build 0)  -->
<svg version="1.1" id="Laag_1" xmlns="http://www.w3.org/2000/svg" xmlns:xlink="http://www.w3.org/1999/xlink" x="0px" y="0px"
	 viewBox="0 0 20 20" style="enable-background:new 0 0 20 20;" xml:space="preserve">
<style type="text/css">
	.st0{fill:#090D16;}
	.st1{fill:none;stroke:#090D16;stroke-miterlimit:10;}
</style>
<g>
	<path class="st0" d="M10,1c5,0,9,4,9,9s-4,9-9,9s-9-4-9-9S5,1,10,1 M10,0C4.5,0,0,4.5,0,10s4.5,10,10,10s10-4.5,10-10S15.5,0,10,0
		L10,0z"/>
</g>
<polyline class="st1" points="13.5,3.9 10,10 11.8,14.6 "/>
<line class="st1" x1="10" y1="2" x2="10" y2="3.9"/>
<line class="st1" x1="18" y1="10" x2="16.1" y2="10"/>
<line class="st1" x1="10" y1="18" x2="10" y2="16.1"/>
<line class="st1" x1="2" y1="10" x2="3.9" y2="10"/>
</svg>
