<?xml version="1.0" encoding="utf-8"?>
<!-- Generator: Adobe Illustrator 26.0.1, SVG Export Plug-In . SVG Version: 6.00 Build 0)  -->
<svg version="1.1" id="Laag_1" xmlns="http://www.w3.org/2000/svg" xmlns:xlink="http://www.w3.org/1999/xlink" x="0px" y="0px"
	 viewBox="0 0 40 40" style="enable-background:new 0 0 40 40;" xml:space="preserve">
<style type="text/css">
	.st0{fill:#50AAC5;}
</style>
<g>
	<path class="st0" d="M20,2C10.1,2,2,10.1,2,20s8.1,18,18,18s18-8.1,18-18S29.9,2,20,2z M24.7,27.1c0,0-0.6-0.7-1.1-1.4
		c2.2-0.6,3.1-2,3.1-2c-0.7,0.5-1.4,0.8-2,1c-0.9,0.3-1.7,0.6-2.5,0.7c-1.6,0.3-3.1,0.2-4.4,0c-1-0.2-1.8-0.4-2.5-0.7
		c-0.4-0.1-0.8-0.3-1.3-0.6c0,0-0.1,0-0.1-0.1c0,0,0,0,0,0c-0.3-0.2-0.5-0.3-0.5-0.3s0.8,1.4,3,2c-0.5,0.6-1.2,1.4-1.2,1.4
		C11.5,27,10,24.6,10,24.6c0-5.5,2.5-9.9,2.5-9.9c2.5-1.8,4.8-1.8,4.8-1.8l0.2,0.2c-3.1,0.9-4.5,2.2-4.5,2.2s0.4-0.2,1-0.5
		c1.8-0.8,3.3-1,3.9-1.1c0.1,0,0.2,0,0.3,0c1.1-0.1,2.2-0.2,3.4,0c1.6,0.2,3.4,0.7,5.1,1.6c0,0-1.4-1.3-4.3-2.1l0.2-0.3
		c0,0,2.3,0,4.8,1.8c0,0,2.5,4.4,2.5,9.9C30,24.6,28.5,27,24.7,27.1z"/>
	<path class="st0" d="M23,19.2c-1,0-1.7,0.8-1.7,1.9c0,1.1,0.8,1.9,1.7,1.9s1.7-0.8,1.7-1.9C24.8,20,24,19.2,23,19.2z"/>
	<ellipse class="st0" cx="16.8" cy="21.1" rx="1.7" ry="1.9"/>
</g>
</svg>
