<?xml version="1.0" encoding="utf-8"?>
<!-- Generator: Adobe Illustrator 26.0.2, SVG Export Plug-In . SVG Version: 6.00 Build 0)  -->
<svg version="1.1" id="Laag_1" xmlns="http://www.w3.org/2000/svg" xmlns:xlink="http://www.w3.org/1999/xlink" x="0px" y="0px"
	 viewBox="0 0 26 26" style="enable-background:new 0 0 26 26;" xml:space="preserve">
<style type="text/css">
	.st0{fill:none;stroke:#C5E3EC;stroke-miterlimit:10;}
	.st1{fill:#C5E3EC;}
</style>
<g>
	<circle class="st0" cx="13" cy="13" r="12"/>
</g>
<path class="st1" d="M10,11c-0.1-0.1-0.2-0.1-0.3-0.2c-0.1,0-0.2-0.1-0.3-0.1c-0.2-0.1-0.5-0.1-0.7-0.1c-0.3,0-0.6,0.1-0.8,0.1
	c-0.1,0-0.2,0.1-0.3,0.1c-0.2,0.1-0.4,0.3-0.6,0.4c-0.1,0.1-0.2,0.2-0.2,0.3c0,0-0.1,0.1-0.1,0.2c-0.1,0.1-0.1,0.2-0.1,0.2
	c0,0.1-0.1,0.1-0.1,0.2c0,0.1-0.1,0.2-0.1,0.2c0,0,0,0.1,0,0.1c0,0.1,0,0.1,0,0.2c0,0,0,0.1,0,0.1c0,0,0,0,0,0.1c0,0.1,0,0.1,0,0.2
	c0,0,0,0,0,0c0,0.1,0,0.2,0,0.3v0c0,0,0,0.1,0,0.1c0,0,0,0,0,0c0.1,0.4,0.3,0.7,0.5,1c0.3,0.4,0.8,0.7,1.4,0.8c0,0,0.1,0,0.1,0
	c0,0,0.1,0,0.1,0c0,0,0.1,0,0.1,0l0,0c0,0,0.1,0,0.1,0c0,0,0.1,0,0.1,0c0,0,0.1,0,0.1,0c0,0,0,0,0,0c0.1,0,0.2,0,0.2,0
	c0,0,0.1,0,0.1,0c0.1,0,0.2,0,0.2-0.1c0.1-0.1,0.3-0.1,0.4-0.2c0.1-0.1,0.2-0.2,0.4-0.3c0,0,0.1-0.1,0.1-0.1l3,1.8v0.7
	c0,1.5,1.4,2.7,2.9,2.4c0.9-0.2,1.7-0.9,1.9-1.9c0.3-1.5-0.9-2.9-2.4-2.9c-0.7,0-1.3,0.3-1.7,0.7l-3-1.8l0,0l-0.1,0
	c0.1-0.2,0.1-0.4,0.1-0.7c0-0.2,0-0.5-0.1-0.7l0.1-0.1l3-1.8c0.5,0.5,1.3,0.8,2.2,0.7c0.9-0.2,1.7-0.9,1.9-1.9
	c0.3-1.7-1.1-3.2-2.8-2.9c-0.9,0.1-1.6,0.8-1.9,1.7c-0.1,0.5-0.1,1,0,1.4l-3.1,1.9C10.2,11.2,10.1,11.1,10,11L10,11z"/>
</svg>
