<svg xmlns="http://www.w3.org/2000/svg" viewBox="0 0 23.99 21.99"><defs><style>.cls-1{fill:#50aac5;}</style></defs><g id="Layer_2" data-name="Layer 2"><g id="Layer_1-2" data-name="Layer 1"><g id="Layer_2-2" data-name="Layer 2"><g id="Layer_1-2-2" data-name="Layer 1-2"><path class="cls-1" d="M22.24.24,1,9.11s-1,.36-.95,1,.9,1,.9,1l5.37,1.91s1.62,5.63,1.94,6.7.57,1.09.57,1.09a.61.61,0,0,0,.57-.08l3.46-3.35L18.2,21.8a1.39,1.39,0,0,0,1.89-.51,1.51,1.51,0,0,0,.11-.22L24,.78C24-.57,22.24.24,22.24.24ZM18.47,19.43l-5.78-4.68-1.8,1.72.4-3.68L19,5.5,8.5,11.73,3.85,10.07,21.59,2.68Z"/></g></g></g></g></svg>