<?xml version="1.0" encoding="utf-8"?>
<!-- Generator: Adobe Illustrator 25.1.0, SVG Export Plug-In . SVG Version: 6.00 Build 0)  -->
<svg version="1.1" id="Layer_1" xmlns="http://www.w3.org/2000/svg" xmlns:xlink="http://www.w3.org/1999/xlink" x="0px" y="0px"
	 viewBox="0 0 24 22" style="enable-background:new 0 0 24 22;" xml:space="preserve">
<style type="text/css">
	.st0{fill:#FFFFFF;}
</style>
<g id="Layer_2_1_">
	<g id="Layer_1-2">
		<path class="st0" d="M22.2,0.2L1,9.1c0,0-1,0.4-0.9,1s0.9,1,0.9,1l5.4,1.9c0,0,1.6,5.6,1.9,6.7c0.3,1.1,0.6,1.1,0.6,1.1
			c0.2,0.1,0.4,0,0.6-0.1l3.5-3.3l5.4,4.4c0.7,0.4,1.5,0.1,1.9-0.5c0-0.1,0.1-0.1,0.1-0.2L24,0.8C24-0.6,22.2,0.2,22.2,0.2z
			 M18.5,19.4l-5.8-4.7l-1.8,1.7l0.4-3.7L19,5.5L8.5,11.7l-4.6-1.7l17.7-7.4L18.5,19.4z"/>
	</g>
</g>
</svg>
