<?xml version="1.0" encoding="utf-8"?>
<!-- Generator: Adobe Illustrator 25.1.0, SVG Export Plug-In . SVG Version: 6.00 Build 0)  -->
<svg version="1.1" id="Layer_1" xmlns="http://www.w3.org/2000/svg" xmlns:xlink="http://www.w3.org/1999/xlink" x="0px" y="0px"
	 viewBox="0 0 27.1 22" style="enable-background:new 0 0 27.1 22;" xml:space="preserve">
<style type="text/css">
	.st0{fill:#50AAC5;}
</style>
<g id="Layer_2_1_">
	<g id="Logo">
		<g id="Logo-2">
			<path id="white_background" class="st0" d="M24.3,5.5c0,0.2,0,0.5,0,0.7c0,7.3-5.6,15.8-15.8,15.8l0,0c-3,0-6-0.9-8.5-2.5
				c0.4,0.1,0.9,0.1,1.3,0.1c2.5,0,4.9-0.8,6.9-2.4c-2.4,0-4.5-1.6-5.2-3.9c0.8,0.2,1.7,0.1,2.5-0.1c-2.6-0.5-4.5-2.8-4.5-5.4V7.7
				c0.8,0.4,1.6,0.7,2.5,0.7C1.2,6.8,0.4,3.6,1.9,1c2.8,3.5,7,5.6,11.4,5.8c-0.7-3,1.2-6,4.2-6.7c1.9-0.4,3.9,0.2,5.3,1.6
				c1.2-0.2,2.4-0.7,3.5-1.4c-0.4,1.3-1.3,2.4-2.4,3.1c1.1-0.1,2.2-0.4,3.2-0.9C26.3,3.7,25.4,4.7,24.3,5.5z"/>
		</g>
	</g>
</g>
</svg>
