<svg xmlns="http://www.w3.org/2000/svg" viewBox="0 0 27.08 22"><defs><style>.cls-1{fill:#fff;}</style></defs><g id="Layer_2" data-name="Layer 2"><g id="Layer_1-2" data-name="Layer 1"><g id="Layer_2-2" data-name="Layer 2"><g id="Logo"><g id="Logo-2"><path id="white_background" data-name="white background" class="cls-1" d="M24.31,5.47c0,.24,0,.48,0,.72C24.32,13.53,18.73,22,8.51,22h0A15.78,15.78,0,0,1,0,19.5a11.69,11.69,0,0,0,1.32.08,11.09,11.09,0,0,0,6.9-2.38A5.55,5.55,0,0,1,3,13.34a5.6,5.6,0,0,0,2.51-.09A5.57,5.57,0,0,1,1.08,7.81V7.74a5.47,5.47,0,0,0,2.52.69A5.56,5.56,0,0,1,1.89,1,15.77,15.77,0,0,0,13.33,6.82,5.56,5.56,0,0,1,22.8,1.75,11.23,11.23,0,0,0,26.33.4a5.64,5.64,0,0,1-2.44,3.07,11.11,11.11,0,0,0,3.19-.87A11.45,11.45,0,0,1,24.31,5.47Z"/></g></g></g></g></g></svg>