<?xml version="1.0" encoding="utf-8"?>
<!-- Generator: Adobe Illustrator 25.1.0, SVG Export Plug-In . SVG Version: 6.00 Build 0)  -->
<svg version="1.1" id="Layer_1" xmlns="http://www.w3.org/2000/svg" xmlns:xlink="http://www.w3.org/1999/xlink" x="0px" y="0px"
	 viewBox="0 0 24 24" style="enable-background:new 0 0 24 24;" xml:space="preserve">
<style type="text/css">
	.st0{fill:#FFFFFF;}
</style>
<g id="Layer_2_1_">
	<g id="Layer_1-2">
		<path class="st0" d="M12.5,22.8c1.5-0.2,2.8-1.3,3.8-3c0.5-0.8,0.9-1.7,1.2-2.6h-5V22.8z M17.8,16c0.3-1.1,0.4-2.3,0.4-3.4h-5.7
			V16H17.8z M1.9,16H5c-0.2-1.1-0.4-2.3-0.4-3.4H1.2C1.2,13.7,1.5,14.9,1.9,16z M6.2,16h5.2v-3.4H5.7C5.8,13.7,5.9,14.9,6.2,16
			L6.2,16z M19,16h3.1c0.4-1.1,0.7-2.3,0.7-3.4h-3.4C19.4,13.7,19.2,14.9,19,16z M21.6,17.1h-2.9c-0.3,1.1-0.8,2.2-1.4,3.2
			C17,21,16.5,21.6,16,22.1C18.4,21.1,20.3,19.4,21.6,17.1L21.6,17.1z M11.4,17.1H6.5c0.3,0.9,0.7,1.8,1.2,2.6c1,1.7,2.3,2.8,3.7,3
			V17.1z M5.3,17.1H2.4c1.2,2.3,3.2,4,5.6,5c-0.5-0.5-1-1.1-1.3-1.8C6.1,19.3,5.6,18.3,5.3,17.1z M2.4,6.8h2.9
			c0.3-1.1,0.8-2.2,1.4-3.2C7,3,7.5,2.4,8,1.9C5.6,2.8,3.7,4.6,2.4,6.8z M6.5,6.8h4.9V1.2c-1.4,0.2-2.7,1.3-3.7,3
			C7.2,5.1,6.8,5.9,6.5,6.8z M12.5,6.8h5c-0.3-0.9-0.7-1.8-1.2-2.6c-1-1.7-2.4-2.8-3.8-3V6.8z M18.7,6.8h2.9c-1.2-2.3-3.2-4-5.6-5
			c0.5,0.5,1,1.1,1.3,1.8C17.9,4.7,18.4,5.7,18.7,6.8z M22.1,8H19c0.2,1.1,0.4,2.3,0.4,3.4h3.4C22.8,10.2,22.5,9.1,22.1,8z M17.8,8
			h-5.3v3.4h5.7C18.2,10.3,18.1,9.1,17.8,8z M11.4,8H6.2c-0.3,1.1-0.4,2.3-0.4,3.4h5.7V8z M5,8H1.9c-0.4,1.1-0.7,2.3-0.7,3.4h3.4
			C4.6,10.3,4.8,9.1,5,8L5,8z M0,11.8C0.1,5.1,5.6-0.1,12.2,0S24.1,5.6,24,12.2S18.4,24.1,11.8,24C5.3,23.9,0.1,18.7,0,12.2V11.8z"
			/>
	</g>
</g>
</svg>
