<?xml version="1.0" encoding="utf-8"?>
<!-- Generator: Adobe Illustrator 26.0.1, SVG Export Plug-In . SVG Version: 6.00 Build 0)  -->
<svg version="1.1" id="Laag_1" xmlns="http://www.w3.org/2000/svg" xmlns:xlink="http://www.w3.org/1999/xlink" x="0px" y="0px"
	 viewBox="0 0 40 40" style="enable-background:new 0 0 40 40;" xml:space="preserve">
<style type="text/css">
	.st0{fill:#50AAC5;}
</style>
<path class="st0" d="M20,2C10.1,2,2,10.1,2,20s8.1,18,18,18s18-8.1,18-18S29.9,2,20,2z M24.3,23c-0.3,1-0.8,1.9-1.5,2.7l-2.7,2.7
	c-0.8,0.8-1.6,1.3-2.7,1.5s-2,0.3-3,0s-1.9-0.8-2.7-1.5c-0.8-0.8-1.3-1.7-1.5-2.7c-0.3-1-0.3-2,0-3c0.3-1,0.8-1.9,1.5-2.7l1.5-1.5
	c0.2-0.2,0.4-0.2,0.6-0.1s0.4,0.3,0.4,0.5c0,0.7,0.2,1.4,0.4,2.1c0.1,0.2,0,0.4-0.2,0.6L14,22.1c-0.5,0.5-0.8,1.2-0.8,2
	c0,0.8,0.3,1.4,0.8,2c0.5,0.6,1.2,0.8,2,0.8c0.8,0,1.4-0.3,2-0.8l2.6-2.6c0.5-0.5,0.8-1.2,0.8-2c0-0.8-0.3-1.4-0.8-2
	c-0.1-0.1-0.3-0.2-0.4-0.4s-0.2-0.3-0.2-0.5c0-0.5,0.1-0.9,0.4-1.2l0.9-0.8c0.1-0.1,0.2-0.2,0.4-0.2s0.3,0,0.4,0.1
	c0.3,0.2,0.6,0.4,0.8,0.7c0.8,0.8,1.3,1.7,1.5,2.7C24.6,20.9,24.6,22,24.3,23z M29.8,17.5c-0.3,1-0.8,1.9-1.5,2.7l-1.5,1.5
	c-0.2,0.2-0.4,0.2-0.6,0.1s-0.4-0.3-0.4-0.5c0-0.7-0.2-1.4-0.4-2.1c-0.1-0.2,0-0.4,0.2-0.6l0.5-0.5c0.5-0.5,0.8-1.2,0.8-2
	c0-0.8-0.3-1.4-0.8-2s-1.2-0.8-2-0.8c-0.8,0-1.4,0.3-2,0.8l-2.6,2.6c-0.5,0.5-0.8,1.2-0.8,2c0,0.8,0.3,1.4,0.8,2
	c0.1,0.1,0.3,0.2,0.4,0.4s0.2,0.3,0.2,0.5c0,0.5-0.1,0.9-0.4,1.2l-0.9,0.8c-0.1,0.1-0.2,0.2-0.4,0.2s-0.3,0-0.4-0.1
	c-0.3-0.2-0.6-0.4-0.8-0.7c-0.8-0.8-1.3-1.7-1.5-2.7c-0.3-1-0.3-2,0-3c0.3-1,0.8-1.9,1.5-2.7l2.7-2.7c0.8-0.8,1.6-1.3,2.7-1.5
	c1-0.3,2-0.3,3,0c1,0.3,1.9,0.8,2.7,1.5c0.8,0.8,1.3,1.7,1.5,2.7C30.1,15.4,30.1,16.4,29.8,17.5z"/>
</svg>
